<svg xmlns="http://www.w3.org/2000/svg" width="1920" height="1080"><path d="M1002,623L1116,836L1128,587Z" fill="#7a7a7a" stroke="#7a7a7a" stroke-width="1.51"/><path d="M1002,623L969,833L1116,836Z" fill="#747474" stroke="#747474" stroke-width="1.51"/><path d="M1116,836L1318,623L1128,587Z" fill="#737373" stroke="#737373" stroke-width="1.51"/><path d="M1116,836L1326,839L1318,623Z" fill="#646464" stroke="#646464" stroke-width="1.51"/><path d="M935,1007L1171,950L1116,836Z" fill="#555555" stroke="#555555" stroke-width="1.51"/><path d="M1171,950L1326,839L1116,836Z" fill="#565656" stroke="#565656" stroke-width="1.51"/><path d="M1128,587L1155,451L1002,623Z" fill="#8a8a8a" stroke="#8a8a8a" stroke-width="1.51"/><path d="M1277,497L1155,451L1128,587Z" fill="#898989" stroke="#898989" stroke-width="1.51"/><path d="M1318,623L1277,497L1128,587Z" fill="#7d7d7d" stroke="#7d7d7d" stroke-width="1.51"/><path d="M1002,623L805,787L969,833Z" fill="#7e7e7e" stroke="#7e7e7e" stroke-width="1.51"/><path d="M969,833L935,1007L1116,836Z" fill="#616161" stroke="#616161" stroke-width="1.51"/><path d="M805,631L805,787L1002,623Z" fill="#8b8b8b" stroke="#8b8b8b" stroke-width="1.51"/><path d="M821,484L805,631L1002,623Z" fill="#979797" stroke="#979797" stroke-width="1.51"/><path d="M1171,950L1297,957L1326,839Z" fill="#4b4b4b" stroke="#4b4b4b" stroke-width="1.51"/><path d="M762,934L935,1007L969,833Z" fill="#636363" stroke="#636363" stroke-width="1.51"/><path d="M1171,950L1306,1130L1297,957Z" fill="#3e3e3e" stroke="#3e3e3e" stroke-width="1.51"/><path d="M1155,451L917,412L1002,623Z" fill="#979797" stroke="#979797" stroke-width="1.51"/><path d="M1326,839L1440,653L1318,623Z" fill="#646464" stroke="#646464" stroke-width="1.51"/><path d="M1318,623L1451,467L1277,497Z" fill="#7b7b7b" stroke="#7b7b7b" stroke-width="1.51"/><path d="M1500,787L1440,653L1326,839Z" fill="#595959" stroke="#595959" stroke-width="1.51"/><path d="M917,412L821,484L1002,623Z" fill="#9e9e9e" stroke="#9e9e9e" stroke-width="1.51"/><path d="M783,283L644,469L821,484Z" fill="#b9b9b9" stroke="#b9b9b9" stroke-width="1.51"/><path d="M1155,451L1005,322L917,412Z" fill="#a5a5a5" stroke="#a5a5a5" stroke-width="1.51"/><path d="M1143,298L1005,322L1155,451Z" fill="#a3a3a3" stroke="#a3a3a3" stroke-width="1.51"/><path d="M805,787L762,934L969,833Z" fill="#747474" stroke="#747474" stroke-width="1.51"/><path d="M622,770L762,934L805,787Z" fill="#818181" stroke="#818181" stroke-width="1.51"/><path d="M622,770L805,787L805,631Z" fill="#8e8e8e" stroke="#8e8e8e" stroke-width="1.51"/><path d="M1459,950L1500,787L1326,839Z" fill="#4a4a4a" stroke="#4a4a4a" stroke-width="1.51"/><path d="M1351,300L1143,298L1155,451Z" fill="#9b9b9b" stroke="#9b9b9b" stroke-width="1.51"/><path d="M1351,300L1155,451L1277,497Z" fill="#919191" stroke="#919191" stroke-width="1.51"/><path d="M935,1007L1144,1133L1171,950Z" fill="#474747" stroke="#474747" stroke-width="1.51"/><path d="M1297,957L1459,950L1326,839Z" fill="#454545" stroke="#454545" stroke-width="1.51"/><path d="M927,1156L1144,1133L935,1007Z" fill="#464646" stroke="#464646" stroke-width="1.51"/><path d="M1440,653L1451,467L1318,623Z" fill="#707070" stroke="#707070" stroke-width="1.51"/><path d="M1606,634L1451,467L1440,653Z" fill="#676767" stroke="#676767" stroke-width="1.51"/><path d="M1306,1130L1459,950L1297,957Z" fill="#383838" stroke="#383838" stroke-width="1.51"/><path d="M821,484L648,586L805,631Z" fill="#a3a3a3" stroke="#a3a3a3" stroke-width="1.51"/><path d="M644,469L648,586L821,484Z" fill="#aeaeae" stroke="#aeaeae" stroke-width="1.51"/><path d="M1144,1133L1306,1130L1171,950Z" fill="#3a3a3a" stroke="#3a3a3a" stroke-width="1.51"/><path d="M820,1132L927,1156L935,1007Z" fill="#4e4e4e" stroke="#4e4e4e" stroke-width="1.51"/><path d="M1144,1133L1286,1332L1306,1130Z" fill="#373737" stroke="#373737" stroke-width="1.51"/><path d="M648,586L622,770L805,631Z" fill="#9a9a9a" stroke="#9a9a9a" stroke-width="1.51"/><path d="M762,934L820,1132L935,1007Z" fill="#585858" stroke="#585858" stroke-width="1.51"/><path d="M1451,467L1351,300L1277,497Z" fill="#898989" stroke="#898989" stroke-width="1.51"/><path d="M644,952L820,1132L762,934Z" fill="#626262" stroke="#626262" stroke-width="1.51"/><path d="M783,283L821,484L917,412Z" fill="#b4b4b4" stroke="#b4b4b4" stroke-width="1.51"/><path d="M399,614L468,825L622,770Z" fill="#9c9c9c" stroke="#9c9c9c" stroke-width="1.51"/><path d="M622,770L644,952L762,934Z" fill="#797979" stroke="#797979" stroke-width="1.51"/><path d="M1611,785L1606,634L1500,787Z" fill="#4d4d4d" stroke="#4d4d4d" stroke-width="1.51"/><path d="M1500,787L1606,634L1440,653Z" fill="#595959" stroke="#595959" stroke-width="1.51"/><path d="M1451,467L1437,267L1351,300Z" fill="#8d8d8d" stroke="#8d8d8d" stroke-width="1.51"/><path d="M1656,961L1611,785L1459,950Z" fill="#363636" stroke="#363636" stroke-width="1.51"/><path d="M1459,950L1611,785L1500,787Z" fill="#444444" stroke="#444444" stroke-width="1.51"/><path d="M1163,106L1005,322L1143,298Z" fill="#aeaeae" stroke="#aeaeae" stroke-width="1.51"/><path d="M927,61L783,283L1005,322Z" fill="#bfbfbf" stroke="#bfbfbf" stroke-width="1.51"/><path d="M1005,322L783,283L917,412Z" fill="#b5b5b5" stroke="#b5b5b5" stroke-width="1.51"/><path d="M1351,300L1163,106L1143,298Z" fill="#a6a6a6" stroke="#a6a6a6" stroke-width="1.51"/><path d="M1634,269L1437,267L1451,467Z" fill="#858585" stroke="#858585" stroke-width="1.51"/><path d="M927,1156L929,1284L1144,1133Z" fill="#464646" stroke="#464646" stroke-width="1.51"/><path d="M820,1132L929,1284L927,1156Z" fill="#4e4e4e" stroke="#4e4e4e" stroke-width="1.51"/><path d="M764,1325L929,1284L820,1132Z" fill="#525252" stroke="#525252" stroke-width="1.51"/><path d="M1306,1130L1524,1130L1459,950Z" fill="#2c2c2c" stroke="#2c2c2c" stroke-width="1.51"/><path d="M1525,1273L1524,1130L1306,1130Z" fill="#2a2a2a" stroke="#2a2a2a" stroke-width="1.51"/><path d="M1323,82L1163,106L1351,300Z" fill="#a7a7a7" stroke="#a7a7a7" stroke-width="1.51"/><path d="M1524,1130L1656,961L1459,950Z" fill="#292929" stroke="#292929" stroke-width="1.51"/><path d="M1822,632L1682,495L1606,634Z" fill="#535353" stroke="#535353" stroke-width="1.51"/><path d="M1606,634L1682,495L1451,467Z" fill="#656565" stroke="#656565" stroke-width="1.51"/><path d="M1822,632L1606,634L1611,785Z" fill="#494949" stroke="#494949" stroke-width="1.51"/><path d="M622,770L468,825L644,952Z" fill="#858585" stroke="#858585" stroke-width="1.51"/><path d="M644,952L611,1171L820,1132Z" fill="#5b5b5b" stroke="#5b5b5b" stroke-width="1.51"/><path d="M399,614L622,770L648,586Z" fill="#a3a3a3" stroke="#a3a3a3" stroke-width="1.51"/><path d="M1177,1360L1286,1332L1144,1133Z" fill="#3a3a3a" stroke="#3a3a3a" stroke-width="1.51"/><path d="M929,1284L1177,1360L1144,1133Z" fill="#414141" stroke="#414141" stroke-width="1.51"/><path d="M426,456L399,614L648,586Z" fill="#b5b5b5" stroke="#b5b5b5" stroke-width="1.51"/><path d="M783,283L623,252L644,469Z" fill="#c6c6c6" stroke="#c6c6c6" stroke-width="1.51"/><path d="M786,95L623,252L783,283Z" fill="#cfcfcf" stroke="#cfcfcf" stroke-width="1.51"/><path d="M1448,134L1323,82L1351,300Z" fill="#9f9f9f" stroke="#9f9f9f" stroke-width="1.51"/><path d="M1448,134L1351,300L1437,267Z" fill="#989898" stroke="#989898" stroke-width="1.51"/><path d="M433,1109L611,1171L644,952Z" fill="#626262" stroke="#626262" stroke-width="1.51"/><path d="M1163,106L927,61L1005,322Z" fill="#bababa" stroke="#bababa" stroke-width="1.51"/><path d="M1122,-32L927,61L1163,106Z" fill="#bebebe" stroke="#bebebe" stroke-width="1.51"/><path d="M1634,269L1448,134L1437,267Z" fill="#8f8f8f" stroke="#8f8f8f" stroke-width="1.51"/><path d="M927,61L786,95L783,283Z" fill="#cccccc" stroke="#cccccc" stroke-width="1.51"/><path d="M1682,495L1634,269L1451,467Z" fill="#747474" stroke="#747474" stroke-width="1.51"/><path d="M929,1284L1122,1495L1177,1360Z" fill="#424242" stroke="#424242" stroke-width="1.51"/><path d="M611,1171L764,1325L820,1132Z" fill="#595959" stroke="#595959" stroke-width="1.51"/><path d="M426,456L648,586L644,469Z" fill="#b7b7b7" stroke="#b7b7b7" stroke-width="1.51"/><path d="M1286,1332L1525,1273L1306,1130Z" fill="#2f2f2f" stroke="#2f2f2f" stroke-width="1.51"/><path d="M1524,1130L1638,1166L1656,961Z" fill="#1c1c1c" stroke="#1c1c1c" stroke-width="1.51"/><path d="M1444,1450L1525,1273L1286,1332Z" fill="#2c2c2c" stroke="#2c2c2c" stroke-width="1.51"/><path d="M1525,1273L1638,1166L1524,1130Z" fill="#202020" stroke="#202020" stroke-width="1.51"/><path d="M443,277L426,456L644,469Z" fill="#cacaca" stroke="#cacaca" stroke-width="1.51"/><path d="M1848,794L1611,785L1656,961Z" fill="#333333" stroke="#333333" stroke-width="1.51"/><path d="M1848,794L1822,632L1611,785Z" fill="#3e3e3e" stroke="#3e3e3e" stroke-width="1.51"/><path d="M1682,495L1852,409L1634,269Z" fill="#6a6a6a" stroke="#6a6a6a" stroke-width="1.51"/><path d="M468,825L407,968L644,952Z" fill="#7d7d7d" stroke="#7d7d7d" stroke-width="1.51"/><path d="M611,1171L625,1302L764,1325Z" fill="#5d5d5d" stroke="#5d5d5d" stroke-width="1.51"/><path d="M285,811L407,968L468,825Z" fill="#8b8b8b" stroke="#8b8b8b" stroke-width="1.51"/><path d="M1260,-72L1163,106L1323,82Z" fill="#b1b1b1" stroke="#b1b1b1" stroke-width="1.51"/><path d="M1260,-72L1122,-32L1163,106Z" fill="#b8b8b8" stroke="#b8b8b8" stroke-width="1.51"/><path d="M927,61L797,-49L786,95Z" fill="#d2d2d2" stroke="#d2d2d2" stroke-width="1.51"/><path d="M423,1292L625,1302L611,1171Z" fill="#626262" stroke="#626262" stroke-width="1.51"/><path d="M1865,999L1848,794L1656,961Z" fill="#222222" stroke="#222222" stroke-width="1.51"/><path d="M1122,-32L913,-32L927,61Z" fill="#c7c7c7" stroke="#c7c7c7" stroke-width="1.51"/><path d="M460,130L443,277L623,252Z" fill="#dcdcdc" stroke="#dcdcdc" stroke-width="1.51"/><path d="M407,968L433,1109L644,952Z" fill="#6f6f6f" stroke="#6f6f6f" stroke-width="1.51"/><path d="M623,252L443,277L644,469Z" fill="#cdcdcd" stroke="#cdcdcd" stroke-width="1.51"/><path d="M223,621L285,811L399,614Z" fill="#acacac" stroke="#acacac" stroke-width="1.51"/><path d="M575,77L623,252L786,95Z" fill="#d9d9d9" stroke="#d9d9d9" stroke-width="1.51"/><path d="M1177,1360L1270,1483L1286,1332Z" fill="#373737" stroke="#373737" stroke-width="1.51"/><path d="M966,1528L1122,1495L929,1284Z" fill="#464646" stroke="#464646" stroke-width="1.51"/><path d="M966,1528L929,1284L785,1509Z" fill="#4e4e4e" stroke="#4e4e4e" stroke-width="1.51"/><path d="M1122,1495L1270,1483L1177,1360Z" fill="#3a3a3a" stroke="#3a3a3a" stroke-width="1.51"/><path d="M1436,-93L1260,-72L1323,82Z" fill="#acacac" stroke="#acacac" stroke-width="1.51"/><path d="M1634,269L1650,137L1448,134Z" fill="#8b8b8b" stroke="#8b8b8b" stroke-width="1.51"/><path d="M1830,244L1650,137L1634,269Z" fill="#7b7b7b" stroke="#7b7b7b" stroke-width="1.51"/><path d="M1122,-32L1116,-240L913,-32Z" fill="#c2c2c2" stroke="#c2c2c2" stroke-width="1.51"/><path d="M1436,-93L1323,82L1448,134Z" fill="#a5a5a5" stroke="#a5a5a5" stroke-width="1.51"/><path d="M1822,632L1852,409L1682,495Z" fill="#565656" stroke="#565656" stroke-width="1.51"/><path d="M1982,608L1852,409L1822,632Z" fill="#4a4a4a" stroke="#4a4a4a" stroke-width="1.51"/><path d="M913,-32L797,-49L927,61Z" fill="#d0d0d0" stroke="#d0d0d0" stroke-width="1.51"/><path d="M806,-247L797,-49L913,-32Z" fill="#d4d4d4" stroke="#d4d4d4" stroke-width="1.51"/><path d="M407,968L260,998L433,1109Z" fill="#727272" stroke="#727272" stroke-width="1.51"/><path d="M399,614L285,811L468,825Z" fill="#9f9f9f" stroke="#9f9f9f" stroke-width="1.51"/><path d="M223,621L399,614L227,413Z" fill="#bfbfbf" stroke="#bfbfbf" stroke-width="1.51"/><path d="M1525,1273L1677,1332L1638,1166Z" fill="#1c1c1c" stroke="#1c1c1c" stroke-width="1.51"/><path d="M1270,1483L1444,1450L1286,1332Z" fill="#313131" stroke="#313131" stroke-width="1.51"/><path d="M797,-49L575,77L786,95Z" fill="#dbdbdb" stroke="#dbdbdb" stroke-width="1.51"/><path d="M1638,1166L1865,999L1656,961Z" fill="#181818" stroke="#181818" stroke-width="1.51"/><path d="M1848,794L1982,608L1822,632Z" fill="#3c3c3c" stroke="#3c3c3c" stroke-width="1.51"/><path d="M1836,1183L1865,999L1638,1166Z" fill="#0f0f0f" stroke="#0f0f0f" stroke-width="1.51"/><path d="M785,1509L929,1284L764,1325Z" fill="#535353" stroke="#535353" stroke-width="1.51"/><path d="M1122,1495L966,1528L1270,1483Z" fill="#3f3f3f" stroke="#3f3f3f" stroke-width="1.51"/><path d="M1613,1506L1677,1332L1525,1273Z" fill="#1c1c1c" stroke="#1c1c1c" stroke-width="1.51"/><path d="M580,1471L764,1325L625,1302Z" fill="#5d5d5d" stroke="#5d5d5d" stroke-width="1.51"/><path d="M580,1471L785,1509L764,1325Z" fill="#5b5b5b" stroke="#5b5b5b" stroke-width="1.51"/><path d="M575,77L460,130L623,252Z" fill="#dedede" stroke="#dedede" stroke-width="1.51"/><path d="M227,413L399,614L426,456Z" fill="#c3c3c3" stroke="#c3c3c3" stroke-width="1.51"/><path d="M444,-48L460,130L575,77Z" fill="#e8e8e8" stroke="#e8e8e8" stroke-width="1.51"/><path d="M1852,409L1830,244L1634,269Z" fill="#6e6e6e" stroke="#6e6e6e" stroke-width="1.51"/><path d="M1658,-32L1436,-93L1448,134Z" fill="#9c9c9c" stroke="#9c9c9c" stroke-width="1.51"/><path d="M806,-247L598,-77L797,-49Z" fill="#dddddd" stroke="#dddddd" stroke-width="1.51"/><path d="M1658,-32L1448,134L1650,137Z" fill="#909090" stroke="#909090" stroke-width="1.51"/><path d="M301,265L426,456L443,277Z" fill="#d7d7d7" stroke="#d7d7d7" stroke-width="1.51"/><path d="M1677,1332L1836,1183L1638,1166Z" fill="#141414" stroke="#141414" stroke-width="1.51"/><path d="M285,811L260,998L407,968Z" fill="#838383" stroke="#838383" stroke-width="1.51"/><path d="M433,1109L423,1292L611,1171Z" fill="#666666" stroke="#666666" stroke-width="1.51"/><path d="M141,998L260,998L285,811Z" fill="#858585" stroke="#858585" stroke-width="1.51"/><path d="M297,1148L423,1292L433,1109Z" fill="#6a6a6a" stroke="#6a6a6a" stroke-width="1.51"/><path d="M2011,942L1848,794L1865,999Z" fill="#1c1c1c" stroke="#1c1c1c" stroke-width="1.51"/><path d="M2033,834L1982,608L1848,794Z" fill="#323232" stroke="#323232" stroke-width="1.51"/><path d="M1852,409L2004,267L1830,244Z" fill="#656565" stroke="#656565" stroke-width="1.51"/><path d="M260,998L297,1148L433,1109Z" fill="#6c6c6c" stroke="#6c6c6c" stroke-width="1.51"/><path d="M460,130L301,265L443,277Z" fill="#e0e0e0" stroke="#e0e0e0" stroke-width="1.51"/><path d="M301,265L227,413L426,456Z" fill="#d5d5d5" stroke="#d5d5d5" stroke-width="1.51"/><path d="M455,1447L580,1471L625,1302Z" fill="#626262" stroke="#626262" stroke-width="1.51"/><path d="M1116,-240L1122,-32L1260,-72Z" fill="#b9b9b9" stroke="#b9b9b9" stroke-width="1.51"/><path d="M797,-49L598,-77L575,77Z" fill="#e1e1e1" stroke="#e1e1e1" stroke-width="1.51"/><path d="M460,130L246,81L301,265Z" fill="#e9e9e9" stroke="#e9e9e9" stroke-width="1.51"/><path d="M1816,101L1658,-32L1650,137Z" fill="#848484" stroke="#848484" stroke-width="1.51"/><path d="M1830,244L1816,101L1650,137Z" fill="#7a7a7a" stroke="#7a7a7a" stroke-width="1.51"/><path d="M2004,267L1816,101L1830,244Z" fill="#6e6e6e" stroke="#6e6e6e" stroke-width="1.51"/><path d="M1972,1161L2011,942L1865,999Z" fill="#090909" stroke="#090909" stroke-width="1.51"/><path d="M2011,942L2033,834L1848,794Z" fill="#242424" stroke="#242424" stroke-width="1.51"/><path d="M1677,1332L1831,1358L1836,1183Z" fill="#0e0e0e" stroke="#0e0e0e" stroke-width="1.51"/><path d="M1836,1183L1972,1161L1865,999Z" fill="#030303" stroke="#030303" stroke-width="1.51"/><path d="M1444,1450L1613,1506L1525,1273Z" fill="#232323" stroke="#232323" stroke-width="1.51"/><path d="M1270,1483L1613,1506L1444,1450Z" fill="#2b2b2b" stroke="#2b2b2b" stroke-width="1.51"/><path d="M966,1528L1613,1506L1270,1483Z" fill="#343434" stroke="#343434" stroke-width="1.51"/><path d="M1289,-267L1260,-72L1436,-93Z" fill="#adadad" stroke="#adadad" stroke-width="1.51"/><path d="M1289,-267L1116,-240L1260,-72Z" fill="#b5b5b5" stroke="#b5b5b5" stroke-width="1.51"/><path d="M423,1292L455,1447L625,1302Z" fill="#666666" stroke="#666666" stroke-width="1.51"/><path d="M286,1462L455,1447L423,1292Z" fill="#6a6a6a" stroke="#6a6a6a" stroke-width="1.51"/><path d="M2177,606L2026,413L1982,608Z" fill="#494949" stroke="#494949" stroke-width="1.51"/><path d="M1982,608L2026,413L1852,409Z" fill="#515151" stroke="#515151" stroke-width="1.51"/><path d="M1613,1506L1831,1358L1677,1332Z" fill="#151515" stroke="#151515" stroke-width="1.51"/><path d="M260,998L141,998L297,1148Z" fill="#757575" stroke="#757575" stroke-width="1.51"/><path d="M223,621L112,762L285,811Z" fill="#a9a9a9" stroke="#a9a9a9" stroke-width="1.51"/><path d="M66,670L112,762L223,621Z" fill="#b2b2b2" stroke="#b2b2b2" stroke-width="1.51"/><path d="M2199,821L2177,606L2033,834Z" fill="#313131" stroke="#313131" stroke-width="1.51"/><path d="M2034,1309L1972,1161L1836,1183Z" fill="#000000" stroke="#000000" stroke-width="1.51"/><path d="M1116,-240L935,-264L913,-32Z" fill="#c7c7c7" stroke="#c7c7c7" stroke-width="1.51"/><path d="M1620,-239L1457,-216L1436,-93Z" fill="#9d9d9d" stroke="#9d9d9d" stroke-width="1.51"/><path d="M1116,-240L1289,-267L935,-264Z" fill="#bdbdbd" stroke="#bdbdbd" stroke-width="1.51"/><path d="M1620,-239L1436,-93L1658,-32Z" fill="#969696" stroke="#969696" stroke-width="1.51"/><path d="M1457,-216L1289,-267L1436,-93Z" fill="#a8a8a8" stroke="#a8a8a8" stroke-width="1.51"/><path d="M112,762L141,998L285,811Z" fill="#969696" stroke="#969696" stroke-width="1.51"/><path d="M297,1148L223,1314L423,1292Z" fill="#6d6d6d" stroke="#6d6d6d" stroke-width="1.51"/><path d="M598,-77L444,-48L575,77Z" fill="#e8e8e8" stroke="#e8e8e8" stroke-width="1.51"/><path d="M104,268L126,438L227,413Z" fill="#dcdcdc" stroke="#dcdcdc" stroke-width="1.51"/><path d="M419,-250L444,-48L598,-77Z" fill="#ebebeb" stroke="#ebebeb" stroke-width="1.51"/><path d="M935,-264L806,-247L913,-32Z" fill="#d0d0d0" stroke="#d0d0d0" stroke-width="1.51"/><path d="M227,413L126,438L223,621Z" fill="#cbcbcb" stroke="#cbcbcb" stroke-width="1.51"/><path d="M104,268L227,413L301,265Z" fill="#e1e1e1" stroke="#e1e1e1" stroke-width="1.51"/><path d="M1816,101L1869,-37L1658,-32Z" fill="#818181" stroke="#818181" stroke-width="1.51"/><path d="M2026,413L2004,267L1852,409Z" fill="#5e5e5e" stroke="#5e5e5e" stroke-width="1.51"/><path d="M126,438L66,670L223,621Z" fill="#c0c0c0" stroke="#c0c0c0" stroke-width="1.51"/><path d="M-34,1127L82,1116L141,998Z" fill="#757575" stroke="#757575" stroke-width="1.51"/><path d="M444,-48L246,81L460,130Z" fill="#ededed" stroke="#ededed" stroke-width="1.51"/><path d="M82,1116L223,1314L297,1148Z" fill="#717171" stroke="#717171" stroke-width="1.51"/><path d="M2039,74L1869,-37L1816,101Z" fill="#767676" stroke="#767676" stroke-width="1.51"/><path d="M1819,-195L1620,-239L1658,-32Z" fill="#888888" stroke="#888888" stroke-width="1.51"/><path d="M1457,-216L1620,-239L1289,-267Z" fill="#a2a2a2" stroke="#a2a2a2" stroke-width="1.51"/><path d="M246,81L104,268L301,265Z" fill="#eaeaea" stroke="#eaeaea" stroke-width="1.51"/><path d="M-95,668L-34,779L66,670Z" fill="#b2b2b2" stroke="#b2b2b2" stroke-width="1.51"/><path d="M2033,834L2177,606L1982,608Z" fill="#393939" stroke="#393939" stroke-width="1.51"/><path d="M2026,413L2143,311L2004,267Z" fill="#616161" stroke="#616161" stroke-width="1.51"/><path d="M2004,267L2039,74L1816,101Z" fill="#707070" stroke="#707070" stroke-width="1.51"/><path d="M2199,821L2033,834L2186,956Z" fill="#212121" stroke="#212121" stroke-width="1.51"/><path d="M935,-264L597,-256L806,-247Z" fill="#d8d8d8" stroke="#d8d8d8" stroke-width="1.51"/><path d="M806,-247L597,-256L598,-77Z" fill="#e1e1e1" stroke="#e1e1e1" stroke-width="1.51"/><path d="M444,-48L266,-80L246,81Z" fill="#f3f3f3" stroke="#f3f3f3" stroke-width="1.51"/><path d="M141,998L82,1116L297,1148Z" fill="#727272" stroke="#727272" stroke-width="1.51"/><path d="M-34,779L141,998L112,762Z" fill="#9a9a9a" stroke="#9a9a9a" stroke-width="1.51"/><path d="M223,1314L286,1462L423,1292Z" fill="#6d6d6d" stroke="#6d6d6d" stroke-width="1.51"/><path d="M455,1447L286,1462L580,1471Z" fill="#686868" stroke="#686868" stroke-width="1.51"/><path d="M580,1471L53,1494L785,1509Z" fill="#676767" stroke="#676767" stroke-width="1.51"/><path d="M785,1509L53,1494L966,1528Z" fill="#606060" stroke="#606060" stroke-width="1.51"/><path d="M138,1352L286,1462L223,1314Z" fill="#717171" stroke="#717171" stroke-width="1.51"/><path d="M1831,1358L2034,1309L1836,1183Z" fill="#020202" stroke="#020202" stroke-width="1.51"/><path d="M2186,956L2033,834L2011,942Z" fill="#1b1b1b" stroke="#1b1b1b" stroke-width="1.51"/><path d="M1613,1506L1859,1508L1831,1358Z" fill="#101010" stroke="#101010" stroke-width="1.51"/><path d="M1961,1533L1859,1508L1613,1506Z" fill="#0c0c0c" stroke="#0c0c0c" stroke-width="1.51"/><path d="M2186,956L2011,942L2174,1108Z" fill="#0e0e0e" stroke="#0e0e0e" stroke-width="1.51"/><path d="M1961,1533L2034,1309L1831,1358Z" fill="#000000" stroke="#000000" stroke-width="1.51"/><path d="M2174,1108L2011,942L1972,1161Z" fill="#020202" stroke="#020202" stroke-width="1.51"/><path d="M2199,472L2143,311L2026,413Z" fill="#5b5b5b" stroke="#5b5b5b" stroke-width="1.51"/><path d="M2199,821L2199,472L2177,606Z" fill="#3e3e3e" stroke="#3e3e3e" stroke-width="1.51"/><path d="M2177,606L2199,472L2026,413Z" fill="#4e4e4e" stroke="#4e4e4e" stroke-width="1.51"/><path d="M-65,497L66,670L126,438Z" fill="#c8c8c8" stroke="#c8c8c8" stroke-width="1.51"/><path d="M66,670L-34,779L112,762Z" fill="#adadad" stroke="#adadad" stroke-width="1.51"/><path d="M2143,311L2039,74L2004,267Z" fill="#6a6a6a" stroke="#6a6a6a" stroke-width="1.51"/><path d="M1869,-37L1819,-195L1658,-32Z" fill="#818181" stroke="#818181" stroke-width="1.51"/><path d="M419,-250L266,-80L444,-48Z" fill="#f1f1f1" stroke="#f1f1f1" stroke-width="1.51"/><path d="M246,81L55,61L104,268Z" fill="#f3f3f3" stroke="#f3f3f3" stroke-width="1.51"/><path d="M2034,1309L2174,1108L1972,1161Z" fill="#000000" stroke="#000000" stroke-width="1.51"/><path d="M2186,956L2174,1108L2199,821Z" fill="#141414" stroke="#141414" stroke-width="1.51"/><path d="M-46,1302L138,1352L82,1116Z" fill="#757575" stroke="#757575" stroke-width="1.51"/><path d="M82,1116L138,1352L223,1314Z" fill="#737373" stroke="#737373" stroke-width="1.51"/><path d="M2017,-83L1819,-195L1869,-37Z" fill="#787878" stroke="#787878" stroke-width="1.51"/><path d="M597,-256L419,-250L598,-77Z" fill="#e8e8e8" stroke="#e8e8e8" stroke-width="1.51"/><path d="M-92,287L126,438L104,268Z" fill="#e4e4e4" stroke="#e4e4e4" stroke-width="1.51"/><path d="M-92,287L-65,497L126,438Z" fill="#dddddd" stroke="#dddddd" stroke-width="1.51"/><path d="M-65,497L-95,668L66,670Z" fill="#bfbfbf" stroke="#bfbfbf" stroke-width="1.51"/><path d="M-119,954L-34,1127L141,998Z" fill="#7e7e7e" stroke="#7e7e7e" stroke-width="1.51"/><path d="M1859,1508L1961,1533L1831,1358Z" fill="#040404" stroke="#040404" stroke-width="1.51"/><path d="M2034,1309L2159,1317L2174,1108Z" fill="#000000" stroke="#000000" stroke-width="1.51"/><path d="M966,1528L1961,1533L1613,1506Z" fill="#242424" stroke="#242424" stroke-width="1.51"/><path d="M-119,954L141,998L-34,779Z" fill="#909090" stroke="#909090" stroke-width="1.51"/><path d="M2197,89L2039,74L2143,311Z" fill="#6f6f6f" stroke="#6f6f6f" stroke-width="1.51"/><path d="M2169,-19L2017,-83L2039,74Z" fill="#777777" stroke="#777777" stroke-width="1.51"/><path d="M2039,74L2017,-83L1869,-37Z" fill="#777777" stroke="#777777" stroke-width="1.51"/><path d="M2126,1483L2159,1317L2034,1309Z" fill="#000000" stroke="#000000" stroke-width="1.51"/><path d="M2174,1108L2159,1317L2199,821Z" fill="#000000" stroke="#000000" stroke-width="1.51"/><path d="M115,-36L55,61L246,81Z" fill="#f8f8f8" stroke="#f8f8f8" stroke-width="1.51"/><path d="M115,-36L246,81L266,-80Z" fill="#f8f8f8" stroke="#f8f8f8" stroke-width="1.51"/><path d="M110,-205L115,-36L266,-80Z" fill="#fafafa" stroke="#fafafa" stroke-width="1.51"/><path d="M419,-250L265,-206L266,-80Z" fill="#f4f4f4" stroke="#f4f4f4" stroke-width="1.51"/><path d="M-290,754L-119,954L-34,779Z" fill="#a0a0a0" stroke="#a0a0a0" stroke-width="1.51"/><path d="M-95,668L-290,754L-34,779Z" fill="#aeaeae" stroke="#aeaeae" stroke-width="1.51"/><path d="M-65,497L-260,617L-95,668Z" fill="#c2c2c2" stroke="#c2c2c2" stroke-width="1.51"/><path d="M-44,137L-92,287L104,268Z" fill="#efefef" stroke="#efefef" stroke-width="1.51"/><path d="M-44,137L104,268L55,61Z" fill="#f5f5f5" stroke="#f5f5f5" stroke-width="1.51"/><path d="M2199,472L2197,89L2143,311Z" fill="#656565" stroke="#656565" stroke-width="1.51"/><path d="M-122,-83L-44,137L55,61Z" fill="#fdfdfd" stroke="#fdfdfd" stroke-width="1.51"/><path d="M-122,-83L55,61L115,-36Z" fill="#fefefe" stroke="#fefefe" stroke-width="1.51"/><path d="M138,1352L53,1494L286,1462Z" fill="#737373" stroke="#737373" stroke-width="1.51"/><path d="M-34,1127L-46,1302L82,1116Z" fill="#777777" stroke="#777777" stroke-width="1.51"/><path d="M-272,1159L-46,1302L-34,1127Z" fill="#777777" stroke="#777777" stroke-width="1.51"/><path d="M1961,1533L2126,1483L2034,1309Z" fill="#000000" stroke="#000000" stroke-width="1.51"/><path d="M2197,89L2169,-19L2039,74Z" fill="#757575" stroke="#757575" stroke-width="1.51"/><path d="M2017,-83L2037,-272L1819,-195Z" fill="#777777" stroke="#777777" stroke-width="1.51"/><path d="M-46,1302L53,1494L138,1352Z" fill="#767676" stroke="#767676" stroke-width="1.51"/><path d="M286,1462L53,1494L580,1471Z" fill="#6e6e6e" stroke="#6e6e6e" stroke-width="1.51"/><path d="M265,-206L110,-205L266,-80Z" fill="#f8f8f8" stroke="#f8f8f8" stroke-width="1.51"/><path d="M419,-250L110,-205L265,-206Z" fill="#f6f6f6" stroke="#f6f6f6" stroke-width="1.51"/><path d="M-92,287L-204,318L-65,497Z" fill="#e2e2e2" stroke="#e2e2e2" stroke-width="1.51"/><path d="M-267,74L-204,318L-92,287Z" fill="#efefef" stroke="#efefef" stroke-width="1.51"/><path d="M-267,74L-92,287L-44,137Z" fill="#f5f5f5" stroke="#f5f5f5" stroke-width="1.51"/><path d="M-268,468L-260,617L-65,497Z" fill="#cbcbcb" stroke="#cbcbcb" stroke-width="1.51"/><path d="M-119,954L-272,1159L-34,1127Z" fill="#777777" stroke="#777777" stroke-width="1.51"/><path d="M2174,-200L2037,-272L2017,-83Z" fill="#777777" stroke="#777777" stroke-width="1.51"/><path d="M1819,-195L2037,-272L1620,-239Z" fill="#7e7e7e" stroke="#7e7e7e" stroke-width="1.51"/><path d="M1620,-239L2037,-272L1289,-267Z" fill="#8d8d8d" stroke="#8d8d8d" stroke-width="1.51"/><path d="M-204,318L-268,468L-65,497Z" fill="#dadada" stroke="#dadada" stroke-width="1.51"/><path d="M-268,468L-290,754L-260,617Z" fill="#bfbfbf" stroke="#bfbfbf" stroke-width="1.51"/><path d="M-260,617L-290,754L-95,668Z" fill="#b6b6b6" stroke="#b6b6b6" stroke-width="1.51"/><path d="M-46,1302L-45,1499L53,1494Z" fill="#777777" stroke="#777777" stroke-width="1.51"/><path d="M53,1494L-45,1499L966,1528Z" fill="#6d6d6d" stroke="#6d6d6d" stroke-width="1.51"/><path d="M-205,1347L-45,1499L-46,1302Z" fill="#777777" stroke="#777777" stroke-width="1.51"/><path d="M-290,754L-295,938L-119,954Z" fill="#969696" stroke="#969696" stroke-width="1.51"/><path d="M2169,-19L2174,-200L2017,-83Z" fill="#777777" stroke="#777777" stroke-width="1.51"/><path d="M2197,89L2174,-200L2169,-19Z" fill="#777777" stroke="#777777" stroke-width="1.51"/><path d="M-295,938L-272,1159L-119,954Z" fill="#7f7f7f" stroke="#7f7f7f" stroke-width="1.51"/><path d="M-272,1159L-205,1347L-46,1302Z" fill="#777777" stroke="#777777" stroke-width="1.51"/><path d="M-38,-231L-122,-83L115,-36Z" fill="#ffffff" stroke="#ffffff" stroke-width="1.51"/><path d="M-204,318L-267,74L-268,468Z" fill="#eaeaea" stroke="#eaeaea" stroke-width="1.51"/><path d="M110,-205L-38,-231L115,-36Z" fill="#fdfdfd" stroke="#fdfdfd" stroke-width="1.51"/><path d="M419,-250L-38,-231L110,-205Z" fill="#fafafa" stroke="#fafafa" stroke-width="1.51"/><path d="M-261,-86L-267,74L-122,-83Z" fill="#ffffff" stroke="#ffffff" stroke-width="1.51"/><path d="M-122,-83L-267,74L-44,137Z" fill="#fcfcfc" stroke="#fcfcfc" stroke-width="1.51"/><path d="M-268,468L-267,74L-290,754Z" fill="#d9d9d9" stroke="#d9d9d9" stroke-width="1.51"/><path d="M-205,1347L-213,1487L-45,1499Z" fill="#777777" stroke="#777777" stroke-width="1.51"/><path d="M-272,1159L-213,1487L-205,1347Z" fill="#777777" stroke="#777777" stroke-width="1.51"/><path d="M-245,-222L-261,-86L-122,-83Z" fill="#ffffff" stroke="#ffffff" stroke-width="1.51"/><path d="M-38,-231L-245,-222L-122,-83Z" fill="#ffffff" stroke="#ffffff" stroke-width="1.51"/></svg>